<mxfile host="app.diagrams.net" agent="Mozilla/5.0 (Windows NT 10.0; Win64; x64) AppleWebKit/537.36 (KHTML, like Gecko) Chrome/130.0.0.0 Safari/537.36" version="24.8.0">
  <diagram name="Page-1" id="nE_5aE2afKWFxfe4HRLy">
    <mxGraphModel dx="3044" dy="1375" grid="1" gridSize="10" guides="1" tooltips="1" connect="1" arrows="1" fold="1" page="1" pageScale="1" pageWidth="850" pageHeight="1100" math="0" shadow="0">
      <root>
        <mxCell id="0" />
        <mxCell id="1" parent="0" />
        <mxCell id="drt_VOzcYWZIbevn37hV-15" value="Steam ID" style="ellipse;whiteSpace=wrap;html=1;align=center;fontStyle=4;" parent="1" vertex="1">
          <mxGeometry x="110" y="440" width="100" height="40" as="geometry" />
        </mxCell>
        <mxCell id="drt_VOzcYWZIbevn37hV-16" value="Steam Account" style="rounded=1;arcSize=10;whiteSpace=wrap;html=1;align=center;" parent="1" vertex="1">
          <mxGeometry x="325" y="420" width="100" height="40" as="geometry" />
        </mxCell>
        <mxCell id="drt_VOzcYWZIbevn37hV-17" value="" style="endArrow=none;html=1;rounded=0;exitX=1;exitY=0.5;exitDx=0;exitDy=0;entryX=0;entryY=1;entryDx=0;entryDy=0;" parent="1" source="drt_VOzcYWZIbevn37hV-15" target="drt_VOzcYWZIbevn37hV-16" edge="1">
          <mxGeometry relative="1" as="geometry">
            <mxPoint x="300" y="440" as="sourcePoint" />
            <mxPoint x="460" y="440" as="targetPoint" />
          </mxGeometry>
        </mxCell>
        <mxCell id="drt_VOzcYWZIbevn37hV-18" value="Username" style="ellipse;whiteSpace=wrap;html=1;align=center;" parent="1" vertex="1">
          <mxGeometry x="110" y="510" width="100" height="40" as="geometry" />
        </mxCell>
        <mxCell id="drt_VOzcYWZIbevn37hV-19" value="Password" style="ellipse;whiteSpace=wrap;html=1;align=center;" parent="1" vertex="1">
          <mxGeometry x="110" y="620" width="100" height="40" as="geometry" />
        </mxCell>
        <mxCell id="drt_VOzcYWZIbevn37hV-20" value="E-mail" style="ellipse;whiteSpace=wrap;html=1;align=center;" parent="1" vertex="1">
          <mxGeometry x="110" y="690" width="100" height="40" as="geometry" />
        </mxCell>
        <mxCell id="drt_VOzcYWZIbevn37hV-21" value="" style="endArrow=none;html=1;rounded=0;exitX=1;exitY=0.5;exitDx=0;exitDy=0;entryX=0;entryY=1;entryDx=0;entryDy=0;" parent="1" source="drt_VOzcYWZIbevn37hV-18" target="drt_VOzcYWZIbevn37hV-16" edge="1">
          <mxGeometry relative="1" as="geometry">
            <mxPoint x="240" y="530" as="sourcePoint" />
            <mxPoint x="400" y="530" as="targetPoint" />
          </mxGeometry>
        </mxCell>
        <mxCell id="drt_VOzcYWZIbevn37hV-22" value="" style="endArrow=none;html=1;rounded=0;exitX=1;exitY=0.5;exitDx=0;exitDy=0;entryX=0;entryY=1;entryDx=0;entryDy=0;" parent="1" source="drt_VOzcYWZIbevn37hV-19" target="drt_VOzcYWZIbevn37hV-16" edge="1">
          <mxGeometry relative="1" as="geometry">
            <mxPoint x="240" y="610" as="sourcePoint" />
            <mxPoint x="400" y="610" as="targetPoint" />
          </mxGeometry>
        </mxCell>
        <mxCell id="drt_VOzcYWZIbevn37hV-23" value="" style="endArrow=none;html=1;rounded=0;exitX=1;exitY=0.5;exitDx=0;exitDy=0;entryX=0;entryY=1;entryDx=0;entryDy=0;" parent="1" source="drt_VOzcYWZIbevn37hV-20" target="drt_VOzcYWZIbevn37hV-16" edge="1">
          <mxGeometry relative="1" as="geometry">
            <mxPoint x="220" y="670" as="sourcePoint" />
            <mxPoint x="380" y="670" as="targetPoint" />
          </mxGeometry>
        </mxCell>
        <mxCell id="drt_VOzcYWZIbevn37hV-24" value="Phone Number" style="ellipse;whiteSpace=wrap;html=1;align=center;" parent="1" vertex="1">
          <mxGeometry x="110" y="760" width="100" height="40" as="geometry" />
        </mxCell>
        <mxCell id="drt_VOzcYWZIbevn37hV-25" value="" style="endArrow=none;html=1;rounded=0;exitX=1;exitY=0.5;exitDx=0;exitDy=0;entryX=0;entryY=1;entryDx=0;entryDy=0;" parent="1" source="drt_VOzcYWZIbevn37hV-24" target="drt_VOzcYWZIbevn37hV-16" edge="1">
          <mxGeometry relative="1" as="geometry">
            <mxPoint x="250" y="740" as="sourcePoint" />
            <mxPoint x="410" y="740" as="targetPoint" />
          </mxGeometry>
        </mxCell>
        <mxCell id="drt_VOzcYWZIbevn37hV-26" value="2FA" style="ellipse;whiteSpace=wrap;html=1;align=center;" parent="1" vertex="1">
          <mxGeometry x="110" y="830" width="100" height="40" as="geometry" />
        </mxCell>
        <mxCell id="drt_VOzcYWZIbevn37hV-27" value="" style="endArrow=none;html=1;rounded=0;exitX=1;exitY=0.5;exitDx=0;exitDy=0;entryX=0;entryY=1;entryDx=0;entryDy=0;" parent="1" source="drt_VOzcYWZIbevn37hV-26" target="drt_VOzcYWZIbevn37hV-16" edge="1">
          <mxGeometry relative="1" as="geometry">
            <mxPoint x="250" y="790" as="sourcePoint" />
            <mxPoint x="410" y="790" as="targetPoint" />
          </mxGeometry>
        </mxCell>
        <mxCell id="drt_VOzcYWZIbevn37hV-29" value="Steam ID" style="ellipse;whiteSpace=wrap;html=1;align=center;fontStyle=4;" parent="1" vertex="1">
          <mxGeometry x="650" y="500" width="100" height="40" as="geometry" />
        </mxCell>
        <mxCell id="drt_VOzcYWZIbevn37hV-31" value="" style="endArrow=none;html=1;rounded=0;exitX=0.5;exitY=0;exitDx=0;exitDy=0;entryX=0.5;entryY=1;entryDx=0;entryDy=0;" parent="1" source="drt_VOzcYWZIbevn37hV-29" edge="1">
          <mxGeometry relative="1" as="geometry">
            <mxPoint x="620" y="490" as="sourcePoint" />
            <mxPoint x="700" y="460" as="targetPoint" />
          </mxGeometry>
        </mxCell>
        <mxCell id="drt_VOzcYWZIbevn37hV-34" value="" style="endArrow=none;html=1;rounded=0;entryX=0;entryY=0.5;entryDx=0;entryDy=0;exitX=1;exitY=0.5;exitDx=0;exitDy=0;" parent="1" source="drt_VOzcYWZIbevn37hV-16" edge="1">
          <mxGeometry relative="1" as="geometry">
            <mxPoint x="410" y="530" as="sourcePoint" />
            <mxPoint x="480" y="440.0000000000002" as="targetPoint" />
          </mxGeometry>
        </mxCell>
        <mxCell id="drt_VOzcYWZIbevn37hV-35" value="" style="endArrow=none;html=1;rounded=0;entryX=0;entryY=0.5;entryDx=0;entryDy=0;exitX=1;exitY=0.5;exitDx=0;exitDy=0;" parent="1" edge="1">
          <mxGeometry relative="1" as="geometry">
            <mxPoint x="600" y="440.0000000000002" as="sourcePoint" />
            <mxPoint x="650" y="440" as="targetPoint" />
          </mxGeometry>
        </mxCell>
        <mxCell id="drt_VOzcYWZIbevn37hV-38" value="Game" style="rounded=1;arcSize=10;whiteSpace=wrap;html=1;align=center;" parent="1" vertex="1">
          <mxGeometry x="1250" y="420" width="100" height="40" as="geometry" />
        </mxCell>
        <mxCell id="drt_VOzcYWZIbevn37hV-39" value="Game ID" style="ellipse;whiteSpace=wrap;html=1;align=center;fontStyle=4;" parent="1" vertex="1">
          <mxGeometry x="1360" y="500" width="100" height="40" as="geometry" />
        </mxCell>
        <mxCell id="drt_VOzcYWZIbevn37hV-40" value="Name" style="ellipse;whiteSpace=wrap;html=1;align=center;" parent="1" vertex="1">
          <mxGeometry x="1150" y="500" width="100" height="40" as="geometry" />
        </mxCell>
        <mxCell id="drt_VOzcYWZIbevn37hV-41" value="Publisher" style="ellipse;whiteSpace=wrap;html=1;align=center;" parent="1" vertex="1">
          <mxGeometry x="1150" y="560" width="100" height="40" as="geometry" />
        </mxCell>
        <mxCell id="drt_VOzcYWZIbevn37hV-42" value="Space Required" style="ellipse;whiteSpace=wrap;html=1;align=center;" parent="1" vertex="1">
          <mxGeometry x="1360" y="560" width="100" height="40" as="geometry" />
        </mxCell>
        <mxCell id="drt_VOzcYWZIbevn37hV-43" value="Release Date" style="ellipse;whiteSpace=wrap;html=1;align=center;" parent="1" vertex="1">
          <mxGeometry x="1360" y="630" width="100" height="40" as="geometry" />
        </mxCell>
        <mxCell id="drt_VOzcYWZIbevn37hV-45" value="" style="endArrow=none;html=1;rounded=0;entryX=0.5;entryY=1;entryDx=0;entryDy=0;exitX=0.5;exitY=0;exitDx=0;exitDy=0;" parent="1" source="drt_VOzcYWZIbevn37hV-39" target="drt_VOzcYWZIbevn37hV-38" edge="1">
          <mxGeometry relative="1" as="geometry">
            <mxPoint x="470" y="740" as="sourcePoint" />
            <mxPoint x="630" y="740" as="targetPoint" />
          </mxGeometry>
        </mxCell>
        <mxCell id="drt_VOzcYWZIbevn37hV-46" value="" style="endArrow=none;html=1;rounded=0;entryX=0.5;entryY=1;entryDx=0;entryDy=0;exitX=0.5;exitY=0;exitDx=0;exitDy=0;" parent="1" source="drt_VOzcYWZIbevn37hV-40" target="drt_VOzcYWZIbevn37hV-38" edge="1">
          <mxGeometry relative="1" as="geometry">
            <mxPoint x="980" y="610" as="sourcePoint" />
            <mxPoint x="1140" y="610" as="targetPoint" />
          </mxGeometry>
        </mxCell>
        <mxCell id="drt_VOzcYWZIbevn37hV-47" value="" style="endArrow=none;html=1;rounded=0;entryX=0.5;entryY=1;entryDx=0;entryDy=0;exitX=1;exitY=0.5;exitDx=0;exitDy=0;" parent="1" source="drt_VOzcYWZIbevn37hV-41" target="drt_VOzcYWZIbevn37hV-38" edge="1">
          <mxGeometry relative="1" as="geometry">
            <mxPoint x="910" y="650" as="sourcePoint" />
            <mxPoint x="1070" y="650" as="targetPoint" />
          </mxGeometry>
        </mxCell>
        <mxCell id="drt_VOzcYWZIbevn37hV-48" value="" style="endArrow=none;html=1;rounded=0;entryX=0.5;entryY=1;entryDx=0;entryDy=0;exitX=0;exitY=0.5;exitDx=0;exitDy=0;" parent="1" source="drt_VOzcYWZIbevn37hV-42" target="drt_VOzcYWZIbevn37hV-38" edge="1">
          <mxGeometry relative="1" as="geometry">
            <mxPoint x="850" y="820" as="sourcePoint" />
            <mxPoint x="1010" y="820" as="targetPoint" />
          </mxGeometry>
        </mxCell>
        <mxCell id="drt_VOzcYWZIbevn37hV-49" value="" style="endArrow=none;html=1;rounded=0;entryX=0.5;entryY=1;entryDx=0;entryDy=0;exitX=0;exitY=0.5;exitDx=0;exitDy=0;" parent="1" source="drt_VOzcYWZIbevn37hV-43" target="drt_VOzcYWZIbevn37hV-38" edge="1">
          <mxGeometry relative="1" as="geometry">
            <mxPoint x="980" y="820" as="sourcePoint" />
            <mxPoint x="1140" y="820" as="targetPoint" />
          </mxGeometry>
        </mxCell>
        <mxCell id="drt_VOzcYWZIbevn37hV-50" value="" style="endArrow=none;html=1;rounded=0;entryX=0.5;entryY=1;entryDx=0;entryDy=0;exitX=1;exitY=0.5;exitDx=0;exitDy=0;" parent="1" source="drt_VOzcYWZIbevn37hV-57" target="drt_VOzcYWZIbevn37hV-38" edge="1">
          <mxGeometry relative="1" as="geometry">
            <mxPoint x="1150" y="920" as="sourcePoint" />
            <mxPoint x="730" y="930" as="targetPoint" />
          </mxGeometry>
        </mxCell>
        <mxCell id="drt_VOzcYWZIbevn37hV-51" value="Library Entry" style="shape=associativeEntity;whiteSpace=wrap;html=1;align=center;" parent="1" vertex="1">
          <mxGeometry x="940" y="420" width="100" height="40" as="geometry" />
        </mxCell>
        <mxCell id="drt_VOzcYWZIbevn37hV-52" value="Playtime" style="ellipse;whiteSpace=wrap;html=1;align=center;" parent="1" vertex="1">
          <mxGeometry x="790" y="560" width="100" height="40" as="geometry" />
        </mxCell>
        <mxCell id="drt_VOzcYWZIbevn37hV-53" value="Install Status" style="ellipse;whiteSpace=wrap;html=1;align=center;" parent="1" vertex="1">
          <mxGeometry x="1010" y="560" width="100" height="40" as="geometry" />
        </mxCell>
        <mxCell id="drt_VOzcYWZIbevn37hV-54" value="Date added" style="ellipse;whiteSpace=wrap;html=1;align=center;" parent="1" vertex="1">
          <mxGeometry x="800" y="680" width="100" height="40" as="geometry" />
        </mxCell>
        <mxCell id="drt_VOzcYWZIbevn37hV-55" value="Last Played" style="ellipse;whiteSpace=wrap;html=1;align=center;" parent="1" vertex="1">
          <mxGeometry x="940" y="680" width="100" height="40" as="geometry" />
        </mxCell>
        <mxCell id="drt_VOzcYWZIbevn37hV-57" value="Genre" style="ellipse;shape=doubleEllipse;margin=3;whiteSpace=wrap;html=1;align=center;" parent="1" vertex="1">
          <mxGeometry x="1150" y="630" width="100" height="40" as="geometry" />
        </mxCell>
        <mxCell id="drt_VOzcYWZIbevn37hV-59" value="Price" style="ellipse;whiteSpace=wrap;html=1;align=center;" parent="1" vertex="1">
          <mxGeometry x="1360" y="700" width="100" height="40" as="geometry" />
        </mxCell>
        <mxCell id="drt_VOzcYWZIbevn37hV-60" value="" style="endArrow=none;html=1;rounded=0;entryX=0;entryY=0.5;entryDx=0;entryDy=0;exitX=0.5;exitY=1;exitDx=0;exitDy=0;" parent="1" source="drt_VOzcYWZIbevn37hV-38" target="drt_VOzcYWZIbevn37hV-59" edge="1">
          <mxGeometry relative="1" as="geometry">
            <mxPoint x="920" y="980" as="sourcePoint" />
            <mxPoint x="1080" y="980" as="targetPoint" />
          </mxGeometry>
        </mxCell>
        <mxCell id="drt_VOzcYWZIbevn37hV-61" value="Discount Percentage" style="ellipse;whiteSpace=wrap;html=1;align=center;" parent="1" vertex="1">
          <mxGeometry x="1150" y="700" width="100" height="40" as="geometry" />
        </mxCell>
        <mxCell id="drt_VOzcYWZIbevn37hV-62" value="Price after discount" style="ellipse;whiteSpace=wrap;html=1;align=center;dashed=1;" parent="1" vertex="1">
          <mxGeometry x="1250" y="760" width="100" height="40" as="geometry" />
        </mxCell>
        <mxCell id="drt_VOzcYWZIbevn37hV-63" value="" style="endArrow=none;html=1;rounded=0;entryX=0.5;entryY=1;entryDx=0;entryDy=0;exitX=0.5;exitY=0;exitDx=0;exitDy=0;" parent="1" source="drt_VOzcYWZIbevn37hV-62" target="drt_VOzcYWZIbevn37hV-38" edge="1">
          <mxGeometry relative="1" as="geometry">
            <mxPoint x="920" y="970" as="sourcePoint" />
            <mxPoint x="1080" y="970" as="targetPoint" />
          </mxGeometry>
        </mxCell>
        <mxCell id="drt_VOzcYWZIbevn37hV-64" value="" style="endArrow=none;html=1;rounded=0;entryX=1;entryY=0.5;entryDx=0;entryDy=0;exitX=0.5;exitY=1;exitDx=0;exitDy=0;" parent="1" source="drt_VOzcYWZIbevn37hV-38" target="drt_VOzcYWZIbevn37hV-61" edge="1">
          <mxGeometry relative="1" as="geometry">
            <mxPoint x="930" y="970" as="sourcePoint" />
            <mxPoint x="1090" y="970" as="targetPoint" />
          </mxGeometry>
        </mxCell>
        <mxCell id="drt_VOzcYWZIbevn37hV-65" value="" style="endArrow=none;html=1;rounded=0;entryX=0.5;entryY=1;entryDx=0;entryDy=0;exitX=0.5;exitY=0;exitDx=0;exitDy=0;" parent="1" source="drt_VOzcYWZIbevn37hV-52" target="drt_VOzcYWZIbevn37hV-51" edge="1">
          <mxGeometry relative="1" as="geometry">
            <mxPoint x="650" y="680" as="sourcePoint" />
            <mxPoint x="810" y="680" as="targetPoint" />
          </mxGeometry>
        </mxCell>
        <mxCell id="drt_VOzcYWZIbevn37hV-66" value="" style="endArrow=none;html=1;rounded=0;entryX=0.5;entryY=1;entryDx=0;entryDy=0;exitX=0.5;exitY=0;exitDx=0;exitDy=0;" parent="1" source="drt_VOzcYWZIbevn37hV-53" target="drt_VOzcYWZIbevn37hV-51" edge="1">
          <mxGeometry relative="1" as="geometry">
            <mxPoint x="610" y="700" as="sourcePoint" />
            <mxPoint x="770" y="700" as="targetPoint" />
          </mxGeometry>
        </mxCell>
        <mxCell id="drt_VOzcYWZIbevn37hV-67" value="" style="endArrow=none;html=1;rounded=0;entryX=0.5;entryY=0;entryDx=0;entryDy=0;exitX=0.5;exitY=1;exitDx=0;exitDy=0;" parent="1" source="drt_VOzcYWZIbevn37hV-51" target="drt_VOzcYWZIbevn37hV-54" edge="1">
          <mxGeometry relative="1" as="geometry">
            <mxPoint x="600" y="760" as="sourcePoint" />
            <mxPoint x="760" y="760" as="targetPoint" />
          </mxGeometry>
        </mxCell>
        <mxCell id="drt_VOzcYWZIbevn37hV-68" value="" style="endArrow=none;html=1;rounded=0;entryX=0.5;entryY=1;entryDx=0;entryDy=0;exitX=0.5;exitY=0;exitDx=0;exitDy=0;" parent="1" source="drt_VOzcYWZIbevn37hV-55" target="drt_VOzcYWZIbevn37hV-51" edge="1">
          <mxGeometry relative="1" as="geometry">
            <mxPoint x="650" y="780" as="sourcePoint" />
            <mxPoint x="810" y="780" as="targetPoint" />
          </mxGeometry>
        </mxCell>
        <mxCell id="drt_VOzcYWZIbevn37hV-70" value="Wallet" style="ellipse;whiteSpace=wrap;html=1;align=center;" parent="1" vertex="1">
          <mxGeometry x="110" y="900" width="100" height="40" as="geometry" />
        </mxCell>
        <mxCell id="drt_VOzcYWZIbevn37hV-71" value="" style="endArrow=none;html=1;rounded=0;entryX=0;entryY=1;entryDx=0;entryDy=0;exitX=1;exitY=0.5;exitDx=0;exitDy=0;" parent="1" source="drt_VOzcYWZIbevn37hV-70" target="drt_VOzcYWZIbevn37hV-16" edge="1">
          <mxGeometry relative="1" as="geometry">
            <mxPoint x="230" y="880" as="sourcePoint" />
            <mxPoint x="390" y="880" as="targetPoint" />
          </mxGeometry>
        </mxCell>
        <mxCell id="drt_VOzcYWZIbevn37hV-72" value="Contains" style="shape=rhombus;double=1;perimeter=rhombusPerimeter;whiteSpace=wrap;html=1;align=center;" parent="1" vertex="1">
          <mxGeometry x="1080" y="410" width="120" height="60" as="geometry" />
        </mxCell>
        <mxCell id="drt_VOzcYWZIbevn37hV-73" value="Has" style="shape=rhombus;double=1;perimeter=rhombusPerimeter;whiteSpace=wrap;html=1;align=center;" parent="1" vertex="1">
          <mxGeometry x="790" y="410" width="120" height="60" as="geometry" />
        </mxCell>
        <mxCell id="drt_VOzcYWZIbevn37hV-74" value="" style="endArrow=none;html=1;rounded=0;entryX=0;entryY=0.5;entryDx=0;entryDy=0;exitX=1;exitY=0.5;exitDx=0;exitDy=0;" parent="1" source="drt_VOzcYWZIbevn37hV-73" target="drt_VOzcYWZIbevn37hV-51" edge="1">
          <mxGeometry relative="1" as="geometry">
            <mxPoint x="570" y="630" as="sourcePoint" />
            <mxPoint x="730" y="630" as="targetPoint" />
          </mxGeometry>
        </mxCell>
        <mxCell id="drt_VOzcYWZIbevn37hV-75" value="" style="endArrow=none;html=1;rounded=0;entryX=0;entryY=0.5;entryDx=0;entryDy=0;exitX=1;exitY=0.5;exitDx=0;exitDy=0;" parent="1" target="drt_VOzcYWZIbevn37hV-73" edge="1">
          <mxGeometry relative="1" as="geometry">
            <mxPoint x="750" y="440" as="sourcePoint" />
            <mxPoint x="770" y="730" as="targetPoint" />
          </mxGeometry>
        </mxCell>
        <mxCell id="drt_VOzcYWZIbevn37hV-76" value="" style="endArrow=none;html=1;rounded=0;entryX=0;entryY=0.5;entryDx=0;entryDy=0;exitX=1;exitY=0.5;exitDx=0;exitDy=0;" parent="1" source="drt_VOzcYWZIbevn37hV-72" target="drt_VOzcYWZIbevn37hV-38" edge="1">
          <mxGeometry relative="1" as="geometry">
            <mxPoint x="910" y="830" as="sourcePoint" />
            <mxPoint x="1070" y="830" as="targetPoint" />
          </mxGeometry>
        </mxCell>
        <mxCell id="drt_VOzcYWZIbevn37hV-77" value="" style="endArrow=none;html=1;rounded=0;entryX=0;entryY=0.5;entryDx=0;entryDy=0;exitX=1;exitY=0.5;exitDx=0;exitDy=0;" parent="1" source="drt_VOzcYWZIbevn37hV-51" target="drt_VOzcYWZIbevn37hV-72" edge="1">
          <mxGeometry relative="1" as="geometry">
            <mxPoint x="750" y="890" as="sourcePoint" />
            <mxPoint x="910" y="890" as="targetPoint" />
          </mxGeometry>
        </mxCell>
        <mxCell id="drt_VOzcYWZIbevn37hV-82" value="Review" style="shape=associativeEntity;whiteSpace=wrap;html=1;align=center;" parent="1" vertex="1">
          <mxGeometry x="680" y="80" width="100" height="40" as="geometry" />
        </mxCell>
        <mxCell id="drt_VOzcYWZIbevn37hV-83" value="Rating" style="ellipse;whiteSpace=wrap;html=1;align=center;" parent="1" vertex="1">
          <mxGeometry x="730" y="170" width="100" height="40" as="geometry" />
        </mxCell>
        <mxCell id="drt_VOzcYWZIbevn37hV-84" value="Review Text" style="ellipse;whiteSpace=wrap;html=1;align=center;" parent="1" vertex="1">
          <mxGeometry x="580" y="160" width="100" height="40" as="geometry" />
        </mxCell>
        <mxCell id="drt_VOzcYWZIbevn37hV-85" value="Date" style="ellipse;whiteSpace=wrap;html=1;align=center;" parent="1" vertex="1">
          <mxGeometry x="630" y="240" width="100" height="40" as="geometry" />
        </mxCell>
        <mxCell id="drt_VOzcYWZIbevn37hV-86" value="" style="endArrow=none;html=1;rounded=0;entryX=0.5;entryY=1;entryDx=0;entryDy=0;exitX=0.5;exitY=0;exitDx=0;exitDy=0;" parent="1" source="drt_VOzcYWZIbevn37hV-84" target="drt_VOzcYWZIbevn37hV-82" edge="1">
          <mxGeometry relative="1" as="geometry">
            <mxPoint x="90" y="210" as="sourcePoint" />
            <mxPoint x="250" y="210" as="targetPoint" />
          </mxGeometry>
        </mxCell>
        <mxCell id="drt_VOzcYWZIbevn37hV-87" value="" style="endArrow=none;html=1;rounded=0;entryX=1;entryY=0;entryDx=0;entryDy=0;exitX=0.5;exitY=1;exitDx=0;exitDy=0;" parent="1" source="drt_VOzcYWZIbevn37hV-82" target="drt_VOzcYWZIbevn37hV-85" edge="1">
          <mxGeometry relative="1" as="geometry">
            <mxPoint x="380" y="250" as="sourcePoint" />
            <mxPoint x="540" y="250" as="targetPoint" />
          </mxGeometry>
        </mxCell>
        <mxCell id="drt_VOzcYWZIbevn37hV-93" value="" style="endArrow=none;html=1;rounded=0;entryX=0.5;entryY=0;entryDx=0;entryDy=0;exitX=0.5;exitY=1;exitDx=0;exitDy=0;" parent="1" source="drt_VOzcYWZIbevn37hV-82" target="drt_VOzcYWZIbevn37hV-83" edge="1">
          <mxGeometry relative="1" as="geometry">
            <mxPoint x="340" y="230" as="sourcePoint" />
            <mxPoint x="500" y="230" as="targetPoint" />
          </mxGeometry>
        </mxCell>
        <mxCell id="drt_VOzcYWZIbevn37hV-96" value="Transaction ID" style="ellipse;whiteSpace=wrap;html=1;align=center;fontStyle=4;" parent="1" vertex="1">
          <mxGeometry x="770" y="260" width="100" height="40" as="geometry" />
        </mxCell>
        <mxCell id="drt_VOzcYWZIbevn37hV-97" value="Date" style="ellipse;whiteSpace=wrap;html=1;align=center;" parent="1" vertex="1">
          <mxGeometry x="1010" y="220" width="100" height="40" as="geometry" />
        </mxCell>
        <mxCell id="drt_VOzcYWZIbevn37hV-98" value="Amount" style="ellipse;whiteSpace=wrap;html=1;align=center;" parent="1" vertex="1">
          <mxGeometry x="900" y="160" width="100" height="40" as="geometry" />
        </mxCell>
        <mxCell id="drt_VOzcYWZIbevn37hV-99" value="" style="endArrow=none;html=1;rounded=0;entryX=0;entryY=0.5;entryDx=0;entryDy=0;exitX=0.5;exitY=1;exitDx=0;exitDy=0;" parent="1" source="drt_VOzcYWZIbevn37hV-103" target="drt_VOzcYWZIbevn37hV-97" edge="1">
          <mxGeometry relative="1" as="geometry">
            <mxPoint x="1050" y="120" as="sourcePoint" />
            <mxPoint x="870" y="300" as="targetPoint" />
          </mxGeometry>
        </mxCell>
        <mxCell id="drt_VOzcYWZIbevn37hV-100" value="" style="endArrow=none;html=1;rounded=0;exitX=0.5;exitY=1;exitDx=0;exitDy=0;" parent="1" source="drt_VOzcYWZIbevn37hV-103" edge="1">
          <mxGeometry relative="1" as="geometry">
            <mxPoint x="1050" y="120" as="sourcePoint" />
            <mxPoint x="950" y="200" as="targetPoint" />
          </mxGeometry>
        </mxCell>
        <mxCell id="drt_VOzcYWZIbevn37hV-101" value="" style="endArrow=none;html=1;rounded=0;entryX=0;entryY=0.5;entryDx=0;entryDy=0;exitX=0.5;exitY=0;exitDx=0;exitDy=0;" parent="1" source="drt_VOzcYWZIbevn37hV-96" target="drt_VOzcYWZIbevn37hV-103" edge="1">
          <mxGeometry relative="1" as="geometry">
            <mxPoint x="290" y="290" as="sourcePoint" />
            <mxPoint x="1050" y="120" as="targetPoint" />
          </mxGeometry>
        </mxCell>
        <mxCell id="drt_VOzcYWZIbevn37hV-103" value="Transaction" style="rounded=1;arcSize=10;whiteSpace=wrap;html=1;align=center;" parent="1" vertex="1">
          <mxGeometry x="900" y="220" width="100" height="40" as="geometry" />
        </mxCell>
        <mxCell id="drt_VOzcYWZIbevn37hV-104" value="Writes" style="shape=rhombus;double=1;perimeter=rhombusPerimeter;whiteSpace=wrap;html=1;align=center;" parent="1" vertex="1">
          <mxGeometry x="350" y="250" width="120" height="60" as="geometry" />
        </mxCell>
        <mxCell id="drt_VOzcYWZIbevn37hV-105" value="" style="endArrow=none;html=1;rounded=0;entryX=0.442;entryY=1.017;entryDx=0;entryDy=0;entryPerimeter=0;exitX=0.5;exitY=0;exitDx=0;exitDy=0;" parent="1" source="drt_VOzcYWZIbevn37hV-16" target="drt_VOzcYWZIbevn37hV-104" edge="1">
          <mxGeometry relative="1" as="geometry">
            <mxPoint x="240" y="340" as="sourcePoint" />
            <mxPoint x="400" y="340" as="targetPoint" />
          </mxGeometry>
        </mxCell>
        <mxCell id="drt_VOzcYWZIbevn37hV-106" value="" style="endArrow=none;html=1;rounded=0;entryX=0;entryY=0.5;entryDx=0;entryDy=0;exitX=0.5;exitY=0;exitDx=0;exitDy=0;" parent="1" source="drt_VOzcYWZIbevn37hV-104" target="drt_VOzcYWZIbevn37hV-82" edge="1">
          <mxGeometry relative="1" as="geometry">
            <mxPoint x="390" y="160" as="sourcePoint" />
            <mxPoint x="550" y="160" as="targetPoint" />
          </mxGeometry>
        </mxCell>
        <mxCell id="drt_VOzcYWZIbevn37hV-107" value="Has" style="shape=rhombus;double=1;perimeter=rhombusPerimeter;whiteSpace=wrap;html=1;align=center;" parent="1" vertex="1">
          <mxGeometry x="910" y="70" width="120" height="60" as="geometry" />
        </mxCell>
        <mxCell id="drt_VOzcYWZIbevn37hV-108" value="" style="endArrow=none;html=1;rounded=0;entryX=0.5;entryY=0;entryDx=0;entryDy=0;exitX=1;exitY=0.5;exitDx=0;exitDy=0;" parent="1" source="drt_VOzcYWZIbevn37hV-107" target="drt_VOzcYWZIbevn37hV-38" edge="1">
          <mxGeometry relative="1" as="geometry">
            <mxPoint x="1010" y="330" as="sourcePoint" />
            <mxPoint x="1170" y="330" as="targetPoint" />
          </mxGeometry>
        </mxCell>
        <mxCell id="drt_VOzcYWZIbevn37hV-109" value="" style="endArrow=none;html=1;rounded=0;entryX=0;entryY=0.5;entryDx=0;entryDy=0;exitX=1;exitY=0.5;exitDx=0;exitDy=0;" parent="1" source="drt_VOzcYWZIbevn37hV-82" target="drt_VOzcYWZIbevn37hV-107" edge="1">
          <mxGeometry relative="1" as="geometry">
            <mxPoint x="570" y="320" as="sourcePoint" />
            <mxPoint x="730" y="320" as="targetPoint" />
          </mxGeometry>
        </mxCell>
        <mxCell id="drt_VOzcYWZIbevn37hV-110" value="Creates" style="shape=rhombus;perimeter=rhombusPerimeter;whiteSpace=wrap;html=1;align=center;" parent="1" vertex="1">
          <mxGeometry x="770" y="330" width="120" height="60" as="geometry" />
        </mxCell>
        <mxCell id="drt_VOzcYWZIbevn37hV-111" value="Is part of" style="shape=rhombus;perimeter=rhombusPerimeter;whiteSpace=wrap;html=1;align=center;" parent="1" vertex="1">
          <mxGeometry x="1000" y="330" width="120" height="60" as="geometry" />
        </mxCell>
        <mxCell id="drt_VOzcYWZIbevn37hV-112" value="" style="endArrow=none;html=1;rounded=0;entryX=0;entryY=0.5;entryDx=0;entryDy=0;exitX=1;exitY=0;exitDx=0;exitDy=0;" parent="1" source="drt_VOzcYWZIbevn37hV-16" target="drt_VOzcYWZIbevn37hV-110" edge="1">
          <mxGeometry relative="1" as="geometry">
            <mxPoint x="540" y="350" as="sourcePoint" />
            <mxPoint x="700" y="350" as="targetPoint" />
          </mxGeometry>
        </mxCell>
        <mxCell id="drt_VOzcYWZIbevn37hV-113" value="" style="endArrow=none;html=1;rounded=0;entryX=0;entryY=0;entryDx=0;entryDy=0;exitX=1;exitY=0.5;exitDx=0;exitDy=0;" parent="1" source="drt_VOzcYWZIbevn37hV-111" target="drt_VOzcYWZIbevn37hV-38" edge="1">
          <mxGeometry relative="1" as="geometry">
            <mxPoint x="980" y="300" as="sourcePoint" />
            <mxPoint x="1140" y="300" as="targetPoint" />
          </mxGeometry>
        </mxCell>
        <mxCell id="drt_VOzcYWZIbevn37hV-114" value="" style="endArrow=none;html=1;rounded=0;entryX=0.25;entryY=1;entryDx=0;entryDy=0;exitX=1;exitY=0;exitDx=0;exitDy=0;" parent="1" source="drt_VOzcYWZIbevn37hV-110" target="drt_VOzcYWZIbevn37hV-103" edge="1">
          <mxGeometry relative="1" as="geometry">
            <mxPoint x="530" y="330" as="sourcePoint" />
            <mxPoint x="690" y="330" as="targetPoint" />
          </mxGeometry>
        </mxCell>
        <mxCell id="drt_VOzcYWZIbevn37hV-115" value="" style="endArrow=none;html=1;rounded=0;entryX=0.5;entryY=0;entryDx=0;entryDy=0;exitX=0.75;exitY=1;exitDx=0;exitDy=0;" parent="1" source="drt_VOzcYWZIbevn37hV-103" target="drt_VOzcYWZIbevn37hV-111" edge="1">
          <mxGeometry relative="1" as="geometry">
            <mxPoint x="500" y="320" as="sourcePoint" />
            <mxPoint x="660" y="320" as="targetPoint" />
          </mxGeometry>
        </mxCell>
        <mxCell id="drt_VOzcYWZIbevn37hV-116" value="Personal Achievements" style="shape=associativeEntity;whiteSpace=wrap;html=1;align=center;" parent="1" vertex="1">
          <mxGeometry x="580" y="840" width="115" height="60" as="geometry" />
        </mxCell>
        <mxCell id="drt_VOzcYWZIbevn37hV-117" value="Achievement" style="rounded=1;arcSize=10;whiteSpace=wrap;html=1;align=center;" parent="1" vertex="1">
          <mxGeometry x="1000" y="850" width="100" height="40" as="geometry" />
        </mxCell>
        <mxCell id="drt_VOzcYWZIbevn37hV-118" value="Status" style="ellipse;shape=doubleEllipse;margin=3;whiteSpace=wrap;html=1;align=center;" parent="1" vertex="1">
          <mxGeometry x="670" y="960" width="100" height="40" as="geometry" />
        </mxCell>
        <mxCell id="drt_VOzcYWZIbevn37hV-119" value="Date Completed" style="ellipse;whiteSpace=wrap;html=1;align=center;" parent="1" vertex="1">
          <mxGeometry x="510" y="960" width="100" height="40" as="geometry" />
        </mxCell>
        <mxCell id="drt_VOzcYWZIbevn37hV-120" value="Progress %" style="ellipse;whiteSpace=wrap;html=1;align=center;" parent="1" vertex="1">
          <mxGeometry x="587.5" y="1040" width="100" height="40" as="geometry" />
        </mxCell>
        <mxCell id="drt_VOzcYWZIbevn37hV-121" value="" style="endArrow=none;html=1;rounded=0;entryX=0.5;entryY=0;entryDx=0;entryDy=0;exitX=0.5;exitY=1;exitDx=0;exitDy=0;" parent="1" source="drt_VOzcYWZIbevn37hV-116" target="drt_VOzcYWZIbevn37hV-119" edge="1">
          <mxGeometry relative="1" as="geometry">
            <mxPoint x="540" y="940" as="sourcePoint" />
            <mxPoint x="530" y="1010" as="targetPoint" />
          </mxGeometry>
        </mxCell>
        <mxCell id="drt_VOzcYWZIbevn37hV-122" value="" style="endArrow=none;html=1;rounded=0;entryX=0.5;entryY=0;entryDx=0;entryDy=0;exitX=0.5;exitY=1;exitDx=0;exitDy=0;" parent="1" source="drt_VOzcYWZIbevn37hV-116" target="drt_VOzcYWZIbevn37hV-120" edge="1">
          <mxGeometry relative="1" as="geometry">
            <mxPoint x="300" y="900" as="sourcePoint" />
            <mxPoint x="460" y="900" as="targetPoint" />
          </mxGeometry>
        </mxCell>
        <mxCell id="drt_VOzcYWZIbevn37hV-123" value="" style="endArrow=none;html=1;rounded=0;exitX=0.5;exitY=1;exitDx=0;exitDy=0;entryX=0.5;entryY=0;entryDx=0;entryDy=0;" parent="1" source="drt_VOzcYWZIbevn37hV-116" target="drt_VOzcYWZIbevn37hV-118" edge="1">
          <mxGeometry relative="1" as="geometry">
            <mxPoint x="720" y="870" as="sourcePoint" />
            <mxPoint x="880" y="870" as="targetPoint" />
          </mxGeometry>
        </mxCell>
        <mxCell id="drt_VOzcYWZIbevn37hV-124" value="Achievement ID" style="ellipse;whiteSpace=wrap;html=1;align=center;fontStyle=4;" parent="1" vertex="1">
          <mxGeometry x="1130" y="910" width="100" height="40" as="geometry" />
        </mxCell>
        <mxCell id="drt_VOzcYWZIbevn37hV-125" value="Name" style="ellipse;whiteSpace=wrap;html=1;align=center;" parent="1" vertex="1">
          <mxGeometry x="880" y="920" width="100" height="40" as="geometry" />
        </mxCell>
        <mxCell id="drt_VOzcYWZIbevn37hV-126" value="Requirements" style="ellipse;whiteSpace=wrap;html=1;align=center;" parent="1" vertex="1">
          <mxGeometry x="1130" y="990" width="100" height="40" as="geometry" />
        </mxCell>
        <mxCell id="drt_VOzcYWZIbevn37hV-128" value="" style="endArrow=none;html=1;rounded=0;entryX=0.5;entryY=0;entryDx=0;entryDy=0;exitX=0;exitY=1;exitDx=0;exitDy=0;" parent="1" source="drt_VOzcYWZIbevn37hV-117" target="drt_VOzcYWZIbevn37hV-125" edge="1">
          <mxGeometry relative="1" as="geometry">
            <mxPoint x="790" y="860" as="sourcePoint" />
            <mxPoint x="950" y="860" as="targetPoint" />
          </mxGeometry>
        </mxCell>
        <mxCell id="drt_VOzcYWZIbevn37hV-130" value="" style="endArrow=none;html=1;rounded=0;entryX=0.5;entryY=0;entryDx=0;entryDy=0;exitX=1;exitY=1;exitDx=0;exitDy=0;" parent="1" source="drt_VOzcYWZIbevn37hV-117" target="drt_VOzcYWZIbevn37hV-124" edge="1">
          <mxGeometry relative="1" as="geometry">
            <mxPoint x="720" y="890" as="sourcePoint" />
            <mxPoint x="880" y="890" as="targetPoint" />
          </mxGeometry>
        </mxCell>
        <mxCell id="drt_VOzcYWZIbevn37hV-131" value="" style="endArrow=none;html=1;rounded=0;entryX=0.5;entryY=0;entryDx=0;entryDy=0;exitX=0.5;exitY=1;exitDx=0;exitDy=0;" parent="1" source="drt_VOzcYWZIbevn37hV-117" edge="1">
          <mxGeometry relative="1" as="geometry">
            <mxPoint x="910" y="979.5" as="sourcePoint" />
            <mxPoint x="930" y="1000" as="targetPoint" />
          </mxGeometry>
        </mxCell>
        <mxCell id="drt_VOzcYWZIbevn37hV-132" value="" style="endArrow=none;html=1;rounded=0;entryX=0.5;entryY=0;entryDx=0;entryDy=0;exitX=0.5;exitY=1;exitDx=0;exitDy=0;" parent="1" source="drt_VOzcYWZIbevn37hV-117" target="drt_VOzcYWZIbevn37hV-126" edge="1">
          <mxGeometry relative="1" as="geometry">
            <mxPoint x="760" y="960" as="sourcePoint" />
            <mxPoint x="920" y="960" as="targetPoint" />
          </mxGeometry>
        </mxCell>
        <mxCell id="drt_VOzcYWZIbevn37hV-135" value="Includes" style="shape=rhombus;perimeter=rhombusPerimeter;whiteSpace=wrap;html=1;align=center;" parent="1" vertex="1">
          <mxGeometry x="790" y="840" width="120" height="60" as="geometry" />
        </mxCell>
        <mxCell id="drt_VOzcYWZIbevn37hV-137" value="Has" style="shape=rhombus;perimeter=rhombusPerimeter;whiteSpace=wrap;html=1;align=center;" parent="1" vertex="1">
          <mxGeometry x="1510" y="840" width="120" height="60" as="geometry" />
        </mxCell>
        <mxCell id="drt_VOzcYWZIbevn37hV-138" value="" style="endArrow=none;html=1;rounded=0;exitX=0.5;exitY=1;exitDx=0;exitDy=0;entryX=0.5;entryY=0;entryDx=0;entryDy=0;" parent="1" source="drt_VOzcYWZIbevn37hV-16" edge="1">
          <mxGeometry relative="1" as="geometry">
            <mxPoint x="650" y="770" as="sourcePoint" />
            <mxPoint x="460" y="690.0000000000002" as="targetPoint" />
          </mxGeometry>
        </mxCell>
        <mxCell id="drt_VOzcYWZIbevn37hV-139" value="" style="endArrow=none;html=1;rounded=0;exitX=0.5;exitY=1;exitDx=0;exitDy=0;entryX=0.5;entryY=0;entryDx=0;entryDy=0;" parent="1" target="drt_VOzcYWZIbevn37hV-116" edge="1">
          <mxGeometry relative="1" as="geometry">
            <mxPoint x="460" y="750.0000000000002" as="sourcePoint" />
            <mxPoint x="810" y="770" as="targetPoint" />
          </mxGeometry>
        </mxCell>
        <mxCell id="drt_VOzcYWZIbevn37hV-140" value="" style="endArrow=none;html=1;rounded=0;exitX=1;exitY=0.5;exitDx=0;exitDy=0;" parent="1" source="drt_VOzcYWZIbevn37hV-116" target="drt_VOzcYWZIbevn37hV-135" edge="1">
          <mxGeometry relative="1" as="geometry">
            <mxPoint x="650" y="770" as="sourcePoint" />
            <mxPoint x="810" y="770" as="targetPoint" />
          </mxGeometry>
        </mxCell>
        <mxCell id="drt_VOzcYWZIbevn37hV-141" value="" style="endArrow=none;html=1;rounded=0;entryX=0;entryY=0.5;entryDx=0;entryDy=0;exitX=1;exitY=0.5;exitDx=0;exitDy=0;" parent="1" source="drt_VOzcYWZIbevn37hV-135" target="drt_VOzcYWZIbevn37hV-117" edge="1">
          <mxGeometry relative="1" as="geometry">
            <mxPoint x="650" y="770" as="sourcePoint" />
            <mxPoint x="810" y="770" as="targetPoint" />
          </mxGeometry>
        </mxCell>
        <mxCell id="drt_VOzcYWZIbevn37hV-142" value="" style="endArrow=none;html=1;rounded=0;entryX=0;entryY=0.5;entryDx=0;entryDy=0;exitX=1;exitY=0.5;exitDx=0;exitDy=0;" parent="1" source="drt_VOzcYWZIbevn37hV-117" target="drt_VOzcYWZIbevn37hV-137" edge="1">
          <mxGeometry relative="1" as="geometry">
            <mxPoint x="1300" y="860" as="sourcePoint" />
            <mxPoint x="1460" y="860" as="targetPoint" />
          </mxGeometry>
        </mxCell>
        <mxCell id="drt_VOzcYWZIbevn37hV-143" value="" style="endArrow=none;html=1;rounded=0;entryX=0.5;entryY=0;entryDx=0;entryDy=0;exitX=1;exitY=0.5;exitDx=0;exitDy=0;" parent="1" source="drt_VOzcYWZIbevn37hV-38" target="drt_VOzcYWZIbevn37hV-137" edge="1">
          <mxGeometry relative="1" as="geometry">
            <mxPoint x="1510" y="800" as="sourcePoint" />
            <mxPoint x="1670" y="800" as="targetPoint" />
            <Array as="points">
              <mxPoint x="1560" y="560" />
            </Array>
          </mxGeometry>
        </mxCell>
        <mxCell id="9rYH-OpShBy46gsdBY2b-1" value="Steam Library" style="shape=ext;margin=3;double=1;whiteSpace=wrap;html=1;align=center;" vertex="1" parent="1">
          <mxGeometry x="650" y="410" width="110" height="50" as="geometry" />
        </mxCell>
        <mxCell id="9rYH-OpShBy46gsdBY2b-4" value="Global achievement %" style="ellipse;whiteSpace=wrap;html=1;align=center;dashed=1;" vertex="1" parent="1">
          <mxGeometry x="880" y="1000" width="80" height="50" as="geometry" />
        </mxCell>
        <mxCell id="9rYH-OpShBy46gsdBY2b-5" value="Display Name" style="ellipse;whiteSpace=wrap;html=1;align=center;" vertex="1" parent="1">
          <mxGeometry x="110" y="560" width="100" height="40" as="geometry" />
        </mxCell>
        <mxCell id="9rYH-OpShBy46gsdBY2b-6" value="" style="endArrow=none;html=1;rounded=0;entryX=0;entryY=1;entryDx=0;entryDy=0;exitX=1;exitY=0.5;exitDx=0;exitDy=0;" edge="1" parent="1" source="9rYH-OpShBy46gsdBY2b-5" target="drt_VOzcYWZIbevn37hV-16">
          <mxGeometry relative="1" as="geometry">
            <mxPoint x="520" y="650" as="sourcePoint" />
            <mxPoint x="680" y="650" as="targetPoint" />
          </mxGeometry>
        </mxCell>
        <mxCell id="9rYH-OpShBy46gsdBY2b-7" value="Has" style="shape=rhombus;double=1;perimeter=rhombusPerimeter;whiteSpace=wrap;html=1;align=center;" vertex="1" parent="1">
          <mxGeometry x="480" y="410" width="120" height="60" as="geometry" />
        </mxCell>
        <mxCell id="9rYH-OpShBy46gsdBY2b-9" value="Completes" style="shape=rhombus;double=1;perimeter=rhombusPerimeter;whiteSpace=wrap;html=1;align=center;" vertex="1" parent="1">
          <mxGeometry x="400" y="690" width="120" height="60" as="geometry" />
        </mxCell>
      </root>
    </mxGraphModel>
  </diagram>
</mxfile>
